<svg width="164" height="31" viewBox="0 0 164 31" fill="none" xmlns="http://www.w3.org/2000/svg">
<path d="M46.8621 16.3662L44.9465 12.4225H44.8607V25.662H40.772V6H45.5183L50.9794 15.2958L52.895 19.2394H52.9808V6H57.0694V25.662H52.3232L46.8621 16.3662Z" fill="black"/>
<path d="M67.495 26C66.3513 26 65.3315 25.8216 64.4356 25.4648C63.5398 25.0892 62.7773 24.5728 62.1483 23.9155C61.5383 23.2394 61.0713 22.4225 60.7473 21.4648C60.4423 20.507 60.2898 19.4366 60.2898 18.2535C60.2898 17.0892 60.4423 16.0376 60.7473 15.0986C61.0523 14.1408 61.5002 13.3239 62.0911 12.6479C62.7011 11.9718 63.4445 11.4554 64.3213 11.0986C65.1981 10.723 66.1988 10.5352 67.3234 10.5352C68.5624 10.5352 69.6203 10.7418 70.4971 11.1549C71.393 11.5681 72.1173 12.1221 72.6701 12.8169C73.242 13.5117 73.6518 14.3192 73.8996 15.2394C74.1664 16.1408 74.2999 17.0892 74.2999 18.0845V19.3239H64.6644V19.5493C64.6644 20.5258 64.9312 21.3052 65.465 21.8873C65.9987 22.4507 66.8374 22.7324 67.981 22.7324C68.8579 22.7324 69.5727 22.5634 70.1254 22.2254C70.6782 21.8685 71.1929 21.446 71.6694 20.9577L73.7852 23.5493C73.1181 24.3192 72.2412 24.9202 71.1547 25.3521C70.0873 25.784 68.8674 26 67.495 26ZM67.4092 13.6056C66.5514 13.6056 65.8748 13.8873 65.3792 14.4507C64.9026 14.9953 64.6644 15.7277 64.6644 16.6479V16.8732H69.9253V16.6197C69.9253 15.7183 69.7156 14.9953 69.2963 14.4507C68.896 13.8873 68.267 13.6056 67.4092 13.6056Z" fill="black"/>
<path d="M75.7192 10.8732H79.8078L81.266 16.8451L82.2953 21.3521H82.4097L83.6106 16.8451L85.3261 10.8732H89.186L90.9301 16.8451L92.1595 21.3521H92.2739L93.3032 16.8451L94.7614 10.8732H98.6785L94.5327 25.662H90.1009L88.271 19.4085L87.2131 15.5775H87.1274L86.098 19.4085L84.2682 25.662H79.9222L75.7192 10.8732Z" fill="black"/>
<path d="M106.167 26C104.718 26 103.499 25.7746 102.507 25.3239C101.516 24.8545 100.63 24.1972 99.8483 23.3521L102.336 20.8732C102.87 21.4554 103.46 21.9155 104.109 22.2535C104.757 22.5916 105.49 22.7606 106.31 22.7606C107.149 22.7606 107.73 22.6385 108.054 22.3944C108.378 22.1315 108.54 21.784 108.54 21.3521C108.54 20.6573 108.035 20.2441 107.025 20.1127L105.395 19.9155C102.021 19.5023 100.334 17.9812 100.334 15.3521C100.334 14.6385 100.468 13.9906 100.735 13.4084C101.021 12.8075 101.411 12.3005 101.907 11.8873C102.422 11.4554 103.032 11.1268 103.737 10.9014C104.461 10.6573 105.271 10.5352 106.167 10.5352C106.949 10.5352 107.635 10.5915 108.226 10.7042C108.836 10.7981 109.369 10.9484 109.827 11.1549C110.303 11.3427 110.732 11.5869 111.114 11.8873C111.514 12.169 111.905 12.4883 112.286 12.8451L109.855 15.2958C109.379 14.8263 108.836 14.4601 108.226 14.1972C107.635 13.9155 107.025 13.7746 106.396 13.7746C105.672 13.7746 105.157 13.8873 104.852 14.1127C104.547 14.338 104.394 14.6385 104.394 15.0141C104.394 15.4085 104.499 15.7183 104.709 15.9437C104.938 16.1502 105.357 16.3005 105.967 16.3944L107.654 16.6197C110.952 17.0516 112.6 18.5352 112.6 21.0704C112.6 21.784 112.448 22.4413 112.143 23.0423C111.838 23.6432 111.399 24.169 110.828 24.6197C110.275 25.0516 109.598 25.3897 108.798 25.6338C108.016 25.8779 107.139 26 106.167 26Z" fill="black"/>
<path d="M115.714 6H125.407C127.065 6 128.352 6.46009 129.267 7.38028C130.201 8.30047 130.668 9.52113 130.668 11.0423C130.668 11.7934 130.563 12.4319 130.353 12.9577C130.163 13.4836 129.896 13.9155 129.553 14.2535C129.229 14.5915 128.838 14.8451 128.38 15.0141C127.942 15.1643 127.465 15.2488 126.951 15.2676V15.4366C127.427 15.4366 127.923 15.5211 128.438 15.6901C128.971 15.8592 129.457 16.1315 129.896 16.507C130.334 16.8639 130.696 17.3333 130.982 17.9155C131.287 18.4977 131.44 19.2113 131.44 20.0563C131.44 20.8263 131.306 21.5587 131.039 22.2535C130.792 22.9296 130.439 23.5211 129.982 24.0282C129.524 24.5352 128.981 24.939 128.352 25.2394C127.723 25.5211 127.037 25.662 126.293 25.662H115.714V6ZM120.06 22.0563H125.064C125.636 22.0563 126.083 21.9061 126.408 21.6056C126.751 21.2864 126.922 20.8451 126.922 20.2817V19.3239C126.922 18.7606 126.751 18.3286 126.408 18.0282C126.083 17.7089 125.636 17.5493 125.064 17.5493H120.06V22.0563ZM120.06 14.0563H124.378C124.949 14.0563 125.397 13.8967 125.721 13.5775C126.045 13.2582 126.207 12.8169 126.207 12.2535V11.4084C126.207 10.8451 126.045 10.4038 125.721 10.0845C125.397 9.76526 124.949 9.60563 124.378 9.60563H120.06V14.0563Z" fill="black"/>
<path d="M140.646 26C139.541 26 138.549 25.8216 137.673 25.4648C136.815 25.108 136.081 24.5915 135.471 23.9155C134.88 23.2394 134.423 22.4225 134.099 21.4648C133.774 20.507 133.612 19.4366 133.612 18.2535C133.612 17.0704 133.774 16 134.099 15.0423C134.423 14.0845 134.88 13.277 135.471 12.6197C136.081 11.9437 136.815 11.4272 137.673 11.0704C138.549 10.7136 139.541 10.5352 140.646 10.5352C141.752 10.5352 142.733 10.7136 143.591 11.0704C144.468 11.4272 145.202 11.9437 145.793 12.6197C146.403 13.277 146.87 14.0845 147.194 15.0423C147.518 16 147.68 17.0704 147.68 18.2535C147.68 19.4366 147.518 20.507 147.194 21.4648C146.87 22.4225 146.403 23.2394 145.793 23.9155C145.202 24.5915 144.468 25.108 143.591 25.4648C142.733 25.8216 141.752 26 140.646 26ZM140.646 22.7042C141.485 22.7042 142.133 22.4507 142.59 21.9437C143.048 21.4366 143.277 20.7136 143.277 19.7746V16.7606C143.277 15.8216 143.048 15.0986 142.59 14.5915C142.133 14.0845 141.485 13.831 140.646 13.831C139.807 13.831 139.159 14.0845 138.702 14.5915C138.244 15.0986 138.016 15.8216 138.016 16.7606V19.7746C138.016 20.7136 138.244 21.4366 138.702 21.9437C139.159 22.4507 139.807 22.7042 140.646 22.7042Z" fill="black"/>
<path d="M148.79 25.662L153.736 18.1408L148.847 10.8732H153.65L156.453 15.5211H156.567L159.283 10.8732H163.743L158.768 18.2817L163.772 25.662H158.969L156.081 20.8451H155.966L153.193 25.662H148.79Z" fill="black"/>
<path d="M0 9.18519C0 4.11235 4.11235 0 9.18519 0H21.8148C26.8877 0 31 4.11235 31 9.18519V21.8148C31 26.8877 26.8877 31 21.8148 31H9.18519C4.11235 31 0 26.8877 0 21.8148V9.18519Z" fill="#3549FF"/>
<path fill-rule="evenodd" clip-rule="evenodd" d="M5.9321 8.7242C5.9321 7.80151 6.69735 7.08026 7.60648 7.08026H18.6096C19.5187 7.08026 20.2839 7.80151 20.2839 8.7242V10.6465H23.0108C23.9199 10.6465 24.6852 11.3677 24.6852 12.2904V21.206C24.6852 21.931 24.3888 22.623 23.8668 23.1306C23.3452 23.6377 22.6413 23.9198 21.9105 23.9198H8.70679C7.97601 23.9198 7.27203 23.6377 6.75052 23.1306C6.22846 22.623 5.9321 21.931 5.9321 21.206V8.7242ZM19.6441 22.7716H8.70679C8.27029 22.7716 7.85479 22.6029 7.55092 22.3074C7.24759 22.0125 7.08025 21.6159 7.08025 21.206V8.7242C7.08025 8.46576 7.30087 8.22841 7.60648 8.22841H18.6096C18.9152 8.22841 19.1358 8.46576 19.1358 8.7242V21.206C19.1358 21.772 19.3164 22.3179 19.6441 22.7716ZM20.2839 11.7946V21.206C20.2839 21.6159 20.4513 22.0125 20.7546 22.3074C21.0585 22.6029 21.474 22.7716 21.9105 22.7716C22.347 22.7716 22.7625 22.6029 23.0664 22.3074C23.3697 22.0125 23.537 21.6159 23.537 21.206V12.2904C23.537 12.032 23.3164 11.7946 23.0108 11.7946H20.2839ZM8.86625 11.2206C8.86625 10.9035 9.12328 10.6465 9.44033 10.6465H12.3745C12.6915 10.6465 12.9486 10.9035 12.9486 11.2206V14.0735C12.9486 14.3906 12.6915 14.6476 12.3745 14.6476H9.44033C9.12328 14.6476 8.86625 14.3906 8.86625 14.0735V11.2206ZM10.0144 11.7946V13.4995H11.8004V11.7946H10.0144ZM14.7346 11.2206C14.7346 10.9035 14.9916 10.6465 15.3086 10.6465H16.7757C17.0928 10.6465 17.3498 10.9035 17.3498 11.2206C17.3498 11.5376 17.0928 11.7946 16.7757 11.7946H15.3086C14.9916 11.7946 14.7346 11.5376 14.7346 11.2206ZM14.7346 14.0735C14.7346 13.7565 14.9916 13.4995 15.3086 13.4995H16.7757C17.0928 13.4995 17.3498 13.7565 17.3498 14.0735C17.3498 14.3906 17.0928 14.6476 16.7757 14.6476H15.3086C14.9916 14.6476 14.7346 14.3906 14.7346 14.0735ZM8.86625 16.9265C8.86625 16.6094 9.12328 16.3524 9.44033 16.3524H16.7757C17.0928 16.3524 17.3498 16.6094 17.3498 16.9265C17.3498 17.2436 17.0928 17.5006 16.7757 17.5006H9.44033C9.12328 17.5006 8.86625 17.2436 8.86625 16.9265ZM8.86625 19.7795C8.86625 19.4624 9.12328 19.2054 9.44033 19.2054H16.7757C17.0928 19.2054 17.3498 19.4624 17.3498 19.7795C17.3498 20.0965 17.0928 20.3536 16.7757 20.3536H9.44033C9.12328 20.3536 8.86625 20.0965 8.86625 19.7795Z" fill="white"/>
</svg>
